<?xml version="1.0" standalone="no"?><!DOCTYPE svg PUBLIC "-//W3C//DTD SVG 1.1//EN" "http://www.w3.org/Graphics/SVG/1.1/DTD/svg11.dtd"><svg t="1584237543331" class="icon" viewBox="0 0 1024 1024" version="1.1" xmlns="http://www.w3.org/2000/svg" p-id="2957" xmlns:xlink="http://www.w3.org/1999/xlink" width="200" height="200"><defs><style type="text/css"></style></defs><path d="M512 1024C229.229714 1024 0 794.770286 0 512S229.229714 0 512 0s512 229.229714 512 512-229.229714 512-512 512z m-36.571429-548.571429H329.142857a36.571429 36.571429 0 0 0 0 73.142858h146.285714v146.285714a36.571429 36.571429 0 0 0 73.142858 0v-146.285714h146.285714a36.571429 36.571429 0 0 0 0-73.142858h-146.285714V329.142857a36.571429 36.571429 0 0 0-73.142858 0v146.285714z" p-id="2958" fill="#2c2c2c"></path></svg>