<?xml version="1.0" standalone="no"?><!DOCTYPE svg PUBLIC "-//W3C//DTD SVG 1.1//EN" "http://www.w3.org/Graphics/SVG/1.1/DTD/svg11.dtd"><svg t="1584546510476" class="icon" viewBox="0 0 1026 1024" version="1.1" xmlns="http://www.w3.org/2000/svg" p-id="2032" xmlns:xlink="http://www.w3.org/1999/xlink" width="200.390625" height="200"><defs><style type="text/css"></style></defs><path d="M509.869723 467.174524l-166.513786-172.492646c-12.800891-13.669614-34.16126-13.669614-47.805324-0.868723-6.822032 5.978859-10.245823 14.512787-10.245823 23.915437 0 9.402651 3.423791 17.936578 9.40265 23.915438l166.513787 172.492646-173.335818 166.513786a33.752449 33.752449 0 0 0-0.843173 47.830875c5.978859 6.822032 14.512787 10.245823 23.915437 10.245823 9.3771 0 17.936578-3.423791 23.915438-9.402651l172.492646-166.513786 166.513786 172.492646c12.800891 13.669614 35.004433 13.669614 47.805324 0.868723 6.822032-5.978859 10.245823-14.512787 10.245823-23.915437 0-9.3771-3.423791-17.936578-9.40265-23.915438l-165.645064-172.492646 172.492646-166.513786c13.669614-12.800891 13.669614-34.16126 0.843173-47.830875-5.978859-6.822032-14.512787-10.245823-23.915438-10.245823-9.402651 0-17.936578 3.423791-23.915437 9.402651l-172.518197 166.513786zM143.549613 867.655895c-196.408083-203.230115-190.429224-527.723761 12.800891-724.106294 203.230115-196.408083 527.723761-190.429224 724.106294 12.800891 196.408083 203.230115 191.272396 527.723761-12.800891 724.106294-203.230115 196.408083-526.855038 190.429224-724.106294-12.800891" fill="#909090" p-id="2033"></path></svg>