<?xml version="1.0" standalone="no"?><!DOCTYPE svg PUBLIC "-//W3C//DTD SVG 1.1//EN" "http://www.w3.org/Graphics/SVG/1.1/DTD/svg11.dtd"><svg t="1584528205587" class="icon" viewBox="0 0 1024 1024" version="1.1" xmlns="http://www.w3.org/2000/svg" p-id="2060" xmlns:xlink="http://www.w3.org/1999/xlink" width="200" height="200"><defs><style type="text/css"></style></defs><path d="M512 967.111c-129.195-2.958-236.6-47.246-322.219-132.892C104.164 748.6 59.847 641.195 56.89 512c2.958-129.195 47.246-236.6 132.892-322.219C275.4 104.164 382.805 59.847 512 56.89c129.195 2.958 236.6 47.246 322.219 132.892C919.836 275.4 964.153 382.805 967.11 512c-2.958 129.195-47.246 236.6-132.892 322.219C748.6 919.836 641.195 964.153 512 967.11z m281.998-173.113c75.094-75.093 113.607-168.505 116.253-280.69-2.646-114.801-41.16-208.213-116.253-283.306-75.093-75.094-168.505-113.607-280.69-116.253-114.801 2.646-208.213 41.16-283.306 116.253-75.094 75.093-113.607 168.505-116.253 280.69 2.646 114.801 41.16 208.213 116.253 283.306C304.81 868.808 397.796 907.321 512 910.194c114.204-2.873 207.19-41.387 281.998-116.196zM512 512h199.111a28.444 28.444 0 0 1 0 56.889H483.556a28.444 28.444 0 0 1-28.445-28.445V256A28.444 28.444 0 0 1 512 256v256z" p-id="2061" fill="#000"></path></svg>