<?xml version="1.0" standalone="no"?><!DOCTYPE svg PUBLIC "-//W3C//DTD SVG 1.1//EN" "http://www.w3.org/Graphics/SVG/1.1/DTD/svg11.dtd"><svg t="1584260616230" class="icon" viewBox="0 0 1024 1024" version="1.1" xmlns="http://www.w3.org/2000/svg" p-id="2031" xmlns:xlink="http://www.w3.org/1999/xlink" width="200" height="200"><defs><style type="text/css"></style></defs><path d="M512 64c-87.8 0-159 70.7-159 157.9l0 277.6c0 87.2 71.2 157.9 159 157.9s159-70.7 159-157.9L671 221.9C671 134.7 599.8 64 512 64L512 64zM240.4 460c-18.3 0-33.1 14.7-33.1 32.9 0 2.3 0.2 4.5 0.7 6.6l-0.7 0c0 153.7 115.5 280.4 265 299.8l0 81.8-53 0c-22 0-39.8 17.7-39.8 39.5 0 21.8 17.8 39.5 39.8 39.5l185.5 0c22 0 39.8-17.7 39.8-39.5s-17.8-39.5-39.8-39.5l-53 0 0-81.8c145.1-18.8 257.9-138.9 264.3-286.6 0.4-2.1 0.7-4.3 0.7-6.6 0-0.8-0.2-1.5-0.2-2.2 0-1.5 0.2-2.9 0.2-4.4l-0.7 0c-3.1-15-16.4-26.3-32.5-26.3-16 0-29.4 11.3-32.5 26.3l-0.7 0c0 130.8-106.8 236.8-238.5 236.8-131.7 0-238.5-106-238.5-236.8l-0.7 0c0.4-2.1 0.7-4.3 0.7-6.6C273.5 474.7 258.7 460 240.4 460L240.4 460z" p-id="2032" fill="#2c2c2c"></path></svg>